HIERARCHY
ROOT root
{
	OFFSET	0	13.1	24.9
	CHANNELS 6  Xposition Yposition Zposition Xrotation Yrotation Zrotation
	JOINT spine_1
	{
		OFFSET	0	9.99999	0
		CHANNELS 3  Xrotation Yrotation Zrotation
		JOINT spine_2
		{
			OFFSET	0	112	-10
			CHANNELS 3  Xrotation Yrotation Zrotation
			JOINT spine_3
			{
				OFFSET	0	206.5	19.3
				CHANNELS 3  Xrotation Yrotation Zrotation
				JOINT spine_4
				{
					OFFSET	0	110.4	14.6
					CHANNELS 3  Xrotation Yrotation Zrotation
					JOINT neck_1
					{
						OFFSET	0	71.8	-50.3
						CHANNELS 3  Xrotation Yrotation Zrotation
						JOINT neck_2
						{
							OFFSET	0	86.2	-25.8
							CHANNELS 3  Xrotation Yrotation Zrotation
							JOINT head_ee
							{
								OFFSET	0	179.8	-8.7
								CHANNELS 3  Xrotation Yrotation Zrotation
								End Site
								{
									OFFSET	1	0	0
								}
							}
						}
					}
					JOINT left_clavicle
					{
						OFFSET	-43.2	22.4	-70.8
						CHANNELS 3  Xrotation Yrotation Zrotation
						JOINT left_shoulder
						{
							OFFSET	-93.9	-5.79999	48.7
							CHANNELS 3  Xrotation Yrotation Zrotation
							JOINT left_elbow
							{
								OFFSET	-291.4	-30.8	15.2
								CHANNELS 3  Xrotation Yrotation Zrotation
								JOINT left_lowarm_twist
								{
									OFFSET	-110.7	-3.89999	13.6
									CHANNELS 3  Xrotation Yrotation Zrotation
									JOINT left_hand
									{
										OFFSET	-110.7	-3.89999	13.6
										CHANNELS 3  Xrotation Yrotation Zrotation
										JOINT left_ee
										{
											OFFSET	-80.8	-5.10001	12.1
											CHANNELS 3  Xrotation Yrotation Zrotation
											End Site
											{
												OFFSET	1	0	0
											}
										}
									}
								}
							}
						}
					}
					JOINT right_clavicle
					{
						OFFSET	43.2	22.4	-70.8
						CHANNELS 3  Xrotation Yrotation Zrotation
						JOINT right_shoulder
						{
							OFFSET	93.9	-5.79999	48.7
							CHANNELS 3  Xrotation Yrotation Zrotation
							JOINT right_elbow
							{
								OFFSET	291.4	-30.8	15.2
								CHANNELS 3  Xrotation Yrotation Zrotation
								JOINT right_lowarm_twist
								{
									OFFSET	110.7	-3.89999	13.6
									CHANNELS 3  Xrotation Yrotation Zrotation
									JOINT right_hand
									{
										OFFSET	110.7	-3.89999	13.6
										CHANNELS 3  Xrotation Yrotation Zrotation
										JOINT right_ee
										{
											OFFSET	80.8	-5.10001	12.1
											CHANNELS 3  Xrotation Yrotation Zrotation
											End Site
											{
												OFFSET	1	0	0
											}
										}
									}
								}
							}
						}
					}
				}
			}
		}
	}
	JOINT left_hip
	{
		OFFSET	-82.8	-127.5	0.300001
		CHANNELS 3  Xrotation Yrotation Zrotation
		JOINT left_knee
		{
			OFFSET	-28.2	-396.7	2.2
			CHANNELS 3  Xrotation Yrotation Zrotation
			JOINT left_ankle
			{
				OFFSET	-11.7	-411.3	35.4
				CHANNELS 3  Xrotation Yrotation Zrotation
				JOINT left_toes
				{
					OFFSET	0	-60	-88.6
					CHANNELS 3  Xrotation Yrotation Zrotation
					JOINT left_foot_ee
					{
						OFFSET	-22.5	-16.5	-42.2
						CHANNELS 3  Xrotation Yrotation Zrotation
						End Site
						{
							OFFSET	1	0	0
						}
					}
				}
			}
		}
	}
	JOINT right_hip
	{
		OFFSET	82.8	-127.5	0.300001
		CHANNELS 3  Xrotation Yrotation Zrotation
		JOINT right_knee
		{
			OFFSET	28.2	-396.7	2.2
			CHANNELS 3  Xrotation Yrotation Zrotation
			JOINT right_ankle
			{
				OFFSET	11.7	-411.3	35.4
				CHANNELS 3  Xrotation Yrotation Zrotation
				JOINT right_toes
				{
					OFFSET	0	-60	-88.6
					CHANNELS 3  Xrotation Yrotation Zrotation
					JOINT right_foot_ee
					{
						OFFSET	22.5	-16.5	-42.2
						CHANNELS 3  Xrotation Yrotation Zrotation
						End Site
						{
							OFFSET	1	0	0
						}
					}
				}
			}
		}
	}
}
MOTION
Frames: 13
Frame Time: 0.02
1178.26691895 740.185 -1756.04256697 4.28346950601 36.9952781124 -1.32482488761 -0.405526 -0.0390927 0.114213 -0.40552 -0.0462811 0.111494 -0.405609 -0.0693818 0.0987875 -0.405619 -0.0529095 0.108505 -11.6899 4.95035 2.59437 -11.7011 7.69464 3.86392 -0.0 0.0 -0.0 6.55209 12.2292 12.5013 -27.1273 -7.87369 61.3709 0.760256 -20.6368 0.138416 0.702537 0.0242229 -0.0864551 0.851653 5.34324 7.84362 -0.0 0.0 -0.0 8.9194 16.3 -17.2389 -11.5098 27.9981 -49.7888 1.02524 26.9243 -0.245428 23.0655 -0.228162 2.91774 -0.480097 -24.1388 -6.84877 0.0 0.0 0.0 29.2167 2.58144 -10.2846 -68.4813 -3.18196 9.38948 -7.01708 10.2533 1.0419 -23.0923 0.0 0.0 -0.0 0.0 -0.0 13.8574 22.9283 -11.0532 -23.9792 -0.227216 -3.64601 16.9206 -25.56 2.46458 34.5578 -0.0 -0.0 0.0 0.0 0.0 
1167.76506069 740.685 -1768.81398188 3.51734316282 38.1165277314 0.0854849348927 -0.232774 -0.173841 0.0576918 -0.23279 -0.17716 0.0465129 -0.232946 -0.18301 0.00749503 -0.232901 -0.17953 0.0363041 -13.0786 3.08711 0.685457 -13.0964 5.44429 1.57681 -0.0 0.0 -0.0 6.65515 12.9829 12.6459 -28.3911 -7.59958 61.0543 0.724603 -19.7455 0.12611 0.411717 0.0143246 -0.0506309 0.700809 8.12748 7.94045 -0.0 0.0 -0.0 8.51741 15.678 -16.3906 -10.6274 27.0613 -49.4524 1.1792 30.2898 -0.319175 23.1089 -0.227478 2.92324 -0.706531 -22.1831 -4.7541 0.0 0.0 0.0 33.9299 3.31847 -12.2907 -71.6732 -3.58317 9.67591 -8.5958 8.20785 1.27899 -23.586 0.0 0.0 -0.0 0.0 -0.0 13.2684 23.6785 -11.9899 -22.9794 -0.24837 -3.49405 18.0168 -24.5972 2.59921 32.7604 -0.0 -0.0 0.0 0.0 0.0 
1170.5876675 740.685 -1770.75796916 3.49127279531 37.5685355825 0.127979389381 -0.232774 -0.173841 0.0576918 -0.23279 -0.17716 0.0465129 -0.232946 -0.18301 0.00749503 -0.232901 -0.17953 0.0363041 -13.0786 3.08711 0.685457 -13.0964 5.44429 1.57681 -0.0 0.0 -0.0 6.65515 12.9829 12.6459 -28.3911 -7.59958 61.0543 0.724603 -19.7455 0.12611 0.411717 0.0143246 -0.0506309 0.700809 8.12748 7.94045 -0.0 0.0 -0.0 8.51741 15.678 -16.3906 -10.6274 27.0613 -49.4524 1.1792 30.2898 -0.319175 23.1089 -0.227478 2.92324 -0.706531 -22.1831 -4.7541 0.0 0.0 0.0 33.9299 3.31847 -12.2907 -71.6732 -3.58317 9.67591 -8.5958 8.20785 1.27899 -23.586 0.0 0.0 -0.0 0.0 -0.0 13.2684 23.6785 -11.9899 -22.9794 -0.24837 -3.49405 18.0168 -24.5972 2.59921 32.7604 -0.0 -0.0 0.0 0.0 0.0 
1132.3298013 741.687 -1784.67080631 2.06989148933 43.3609507861 2.04221152076 0.364442 -0.438521 -0.0548018 0.364339 -0.434145 -0.0825955 0.364945 -0.408177 -0.169398 0.365163 -0.429808 -0.102807 -14.4068 -0.389507 -2.23149 -14.3931 0.604556 -2.23931 -0.0 0.0 -0.0 6.52894 12.2811 12.4592 -31.0107 -7.07654 61.8257 0.623422 -17.1621 0.0940738 0.210741 0.00737779 -0.0259032 1.05451 12.4948 11.8848 -0.0 0.0 -0.0 8.31049 16.4165 -15.8953 -8.48343 22.7513 -48.0003 1.50201 36.6488 -0.497478 22.1484 -0.241635 2.80137 -1.09254 -17.9056 -0.643239 0.0 0.0 0.0 34.7027 1.53095 -13.1998 -72.5429 -3.6952 9.75006 -9.54111 7.97099 1.42164 -23.8213 0.0 0.0 -0.0 0.0 -0.0 12.694 25.0244 -13.014 -22.4496 -0.258503 -3.41338 18.9184 -21.9984 2.6843 30.0016 -0.0 -0.0 0.0 0.0 0.0 
1105.40296302 740.78 -1794.41427786 3.71603719661 44.0944624589 1.82590178586 0.411226 -0.134955 -0.235333 0.411249 -0.119707 -0.243444 0.411779 -0.0677577 -0.262685 0.411699 -0.108393 -0.248687 -15.0354 -2.09608 -5.37383 -14.9544 -0.817556 -5.76766 -0.0 0.0 -0.0 6.61579 13.1457 12.5712 -32.3083 -6.50348 61.8763 0.557973 -15.4512 0.0756952 -0.00407905 -0.000143723 0.000501118 1.42499 14.2594 14.905 -0.0 0.0 -0.0 8.34427 13.5091 -16.1212 -7.79022 21.831 -47.3118 1.7098 40.2607 -0.626766 20.3334 -0.262798 2.57051 -1.29707 -15.0019 1.90269 0.0 0.0 0.0 38.2602 4.58526 -13.0774 -54.8943 -1.67461 7.93943 -22.1466 15.1638 3.35249 -29.2661 0.0 0.0 -0.0 0.0 -0.0 10.1711 25.7978 -14.307 -23.9039 -0.228901 -3.63458 20.8961 -19.6883 2.91154 29.5739 -0.0 -0.0 0.0 0.0 0.0 
1084.09342801 738.963 -1800.8814072 2.84411118003 45.8726553041 2.84285764478 0.744519 -0.0652812 -0.0918638 0.744522 -0.0593034 -0.0958316 0.744624 -0.0392137 -0.105654 0.744613 -0.0554077 -0.0981355 -15.8897 -4.1671 -6.87412 -15.7701 -4.00435 -7.89689 -0.0 0.0 -0.0 6.5958 13.0776 12.5402 -33.823 -6.13558 61.6632 0.509337 -14.161 0.0632656 -0.022767 -0.000802595 0.00279685 1.63518 14.0955 16.2175 -0.0 0.0 -0.0 8.44345 10.0429 -16.4611 -6.65791 20.2182 -46.944 2.0385 45.2745 -0.850174 18.9211 -0.2742 2.39048 -1.50265 -9.65274 5.65154 0.0 0.0 0.0 37.0683 3.72842 -13.5322 -46.9657 -0.968295 6.94442 -24.1296 16.9006 3.66749 -33.6832 0.0 0.0 -0.0 0.0 -0.0 8.76609 26.5623 -14.2489 -22.0755 -0.26521 -3.35636 22.7061 -16.5701 3.10462 28.9098 -0.0 -0.0 0.0 0.0 0.0 
1063.25773914 737.769 -1809.41855869 2.74195803631 46.5770544792 3.39774140039 0.944617 0.087745 -0.00214537 0.944613 0.0877037 0.00344243 0.944617 0.085369 0.0203941 0.944627 0.0875185 0.00665575 -16.1681 -5.10614 -8.98079 -15.9593 -4.63111 -10.2065 -0.0 0.0 -0.0 6.47881 12.9218 12.347 -34.9471 -5.78113 61.7939 0.462282 -12.8986 0.0522563 -0.0710627 -0.00250922 0.00872864 1.86281 15.6644 18.2217 -0.0 0.0 -0.0 8.55135 8.56316 -16.726 -5.97283 19.0833 -46.9946 2.3205 48.9718 -1.05694 18.1711 -0.278451 2.29478 -1.57163 -9.59136 6.12518 0.0 0.0 0.0 35.9052 3.06173 -13.4514 -38.6932 -0.38573 5.81448 -26.2546 19.7508 4.02364 -35.7759 0.0 0.0 -0.0 0.0 -0.0 7.68368 27.5626 -14.9618 -22.2123 -0.262801 -3.37721 23.5322 -14.953 3.19093 28.7614 -0.0 -0.0 0.0 0.0 0.0 
1032.16062013 735.076 -1811.26016855 3.20353029609 48.4851782592 3.46079929964 1.05482 0.248576 0.092245 1.0548 0.242203 0.107876 1.05526 0.216964 0.1524 1.0553 0.23831 0.116222 -15.6715 -5.82653 -7.70854 -15.5422 -6.67034 -9.23262 -0.0 0.0 -0.0 6.88672 13.5479 13.0129 -36.3535 -5.92121 60.695 0.403494 -11.3035 0.0399311 -0.165155 -0.00584846 0.0202812 2.0516 15.6251 19.4506 -0.0 0.0 -0.0 8.6377 7.06514 -16.9312 -6.6005 18.1488 -47.2723 2.54999 51.6248 -1.23355 17.4832 -0.281247 2.20696 -1.6098 -7.4232 7.38329 0.0 0.0 0.0 36.1237 1.52891 -13.697 -30.2508 0.0343787 4.58871 -24.8203 22.7064 3.84872 -37.6287 0.0 0.0 -0.0 0.0 -0.0 6.59067 28.1595 -15.3523 -22.505 -0.257478 -3.42182 24.1616 -12.8907 3.25161 28.4394 -0.0 -0.0 0.0 0.0 0.0 
1011.8490248 735.471 -1814.84447769 1.7151079272 49.3043439781 4.83606347126 1.30042 0.329465 0.101411 1.30037 0.322345 0.122171 1.30107 0.293644 0.180568 1.30116 0.318477 0.131926 -15.597 -6.53085 -7.03775 -15.5189 -8.40254 -8.83898 -0.0 0.0 -0.0 7.04141 13.7636 13.2638 -37.0509 -6.72831 59.7448 0.35822 -10.0627 0.0315377 -0.5404 -0.0193537 0.0662996 2.1526 15.6199 20.1177 -0.0 0.0 -0.0 8.80295 6.19913 -17.287 -6.18125 17.2449 -47.5186 2.83726 54.5581 -1.46332 16.9922 -0.282598 2.14427 -1.61285 -5.45938 8.31709 0.0 0.0 0.0 35.678 0.675334 -13.3162 -23.8194 0.230776 3.62174 -22.3319 24.8706 3.49784 -38.4943 0.0 0.0 -0.0 0.0 -0.0 6.41001 28.4937 -15.6716 -21.899 -0.268244 -3.32945 24.1529 -11.7295 3.24419 27.8801 -0.0 -0.0 0.0 0.0 0.0 
1006.71507722 735.471 -1809.31567879 1.74625026102 50.17715049 4.79525586732 1.30042 0.329465 0.101411 1.30037 0.322345 0.122171 1.30107 0.293644 0.180568 1.30116 0.318477 0.131926 -15.597 -6.53085 -7.03775 -15.5189 -8.40254 -8.83898 -0.0 0.0 -0.0 7.04141 13.7636 13.2638 -37.0509 -6.72831 59.7448 0.35822 -10.0627 0.0315377 -0.5404 -0.0193537 0.0662996 2.1526 15.6199 20.1177 -0.0 0.0 -0.0 8.80295 6.19913 -17.287 -6.18125 17.2449 -47.5186 2.83726 54.5581 -1.46332 16.9922 -0.282598 2.14427 -1.61285 -5.45938 8.31709 0.0 0.0 0.0 35.678 0.675334 -13.3162 -23.8194 0.230776 3.62174 -22.3319 24.8706 3.49784 -38.4943 0.0 0.0 -0.0 0.0 -0.0 6.41001 28.4937 -15.6716 -21.899 -0.268244 -3.32945 24.1529 -11.7295 3.24419 27.8801 -0.0 -0.0 0.0 0.0 0.0 
982.980112152 729.207 -1812.3340341 -0.0885844649543 52.1179034523 6.40236087167 1.38419 0.220995 0.147958 1.38418 0.211132 0.161721 1.38479 0.177271 0.198256 1.38479 0.206357 0.167772 -15.5274 -6.95366 -6.98518 -15.464 -9.23419 -8.92803 -0.0 0.0 -0.0 7.04521 13.9032 13.262 -37.5155 -6.50305 59.3022 0.32976 -9.27771 0.026757 -0.600307 -0.0215379 0.0736381 2.2662 15.6006 20.8681 -0.0 0.0 -0.0 9.02178 6.28782 -17.7502 -5.54309 17.3708 -47.6382 2.97122 55.796 -1.5733 16.6479 -0.283225 2.10029 -1.64521 -4.36387 9.04112 0.0 0.0 0.0 34.7166 -0.693654 -13.8757 -17.2713 0.318142 2.62132 -21.799 26.2734 3.43949 -39.6974 0.0 0.0 -0.0 0.0 -0.0 6.22555 28.5807 -15.8582 -21.5273 -0.274362 -3.27275 24.8469 -10.2955 3.31956 27.9438 -0.0 -0.0 0.0 0.0 0.0 
978.827221258 729.207 -1807.48058432 -0.0900272199747 52.828835037 6.40418003858 1.38419 0.220995 0.147958 1.38418 0.211132 0.161721 1.38479 0.177271 0.198256 1.38479 0.206357 0.167772 -15.5274 -6.95366 -6.98518 -15.464 -9.23419 -8.92803 -0.0 0.0 -0.0 7.04521 13.9032 13.262 -37.5155 -6.50305 59.3022 0.32976 -9.27771 0.026757 -0.600307 -0.0215379 0.0736381 2.2662 15.6006 20.8681 -0.0 0.0 -0.0 9.02178 6.28782 -17.7502 -5.54309 17.3708 -47.6382 2.97122 55.796 -1.5733 16.6479 -0.283225 2.10029 -1.64521 -4.36387 9.04112 0.0 0.0 0.0 34.7166 -0.693654 -13.8757 -17.2713 0.318142 2.62132 -21.799 26.2734 3.43949 -39.6974 0.0 0.0 -0.0 0.0 -0.0 6.22555 28.5807 -15.8582 -21.5273 -0.274362 -3.27275 24.8469 -10.2955 3.31956 27.9438 -0.0 -0.0 0.0 0.0 0.0 
975.014568894 729.207 -1802.91515722 -0.0914264409221 53.4908375666 6.40592835534 1.38419 0.220995 0.147958 1.38418 0.211132 0.161721 1.38479 0.177271 0.198256 1.38479 0.206357 0.167772 -15.5274 -6.95366 -6.98518 -15.464 -9.23419 -8.92803 -0.0 0.0 -0.0 7.04521 13.9032 13.262 -37.5155 -6.50305 59.3022 0.32976 -9.27771 0.026757 -0.600307 -0.0215379 0.0736381 2.2662 15.6006 20.8681 -0.0 0.0 -0.0 9.02178 6.28782 -17.7502 -5.54309 17.3708 -47.6382 2.97122 55.796 -1.5733 16.6479 -0.283225 2.10029 -1.64521 -4.36387 9.04112 0.0 0.0 0.0 34.7166 -0.693654 -13.8757 -17.2713 0.318142 2.62132 -21.799 26.2734 3.43949 -39.6974 0.0 0.0 -0.0 0.0 -0.0 6.22555 28.5807 -15.8582 -21.5273 -0.274362 -3.27275 24.8469 -10.2955 3.31956 27.9438 -0.0 -0.0 0.0 0.0 0.0 
